<!DOCTYPE svg PUBLIC "-//W3C//DTD SVG 1.1//EN" "http://www.w3.org/Graphics/SVG/1.1/DTD/svg11.dtd">
<!-- Uploaded to: SVG Repo, www.svgrepo.com, Transformed by: SVG Repo Mixer Tools -->
<svg fill="#ff8f33" height="800px" width="800px" version="1.1" id="Capa_1" xmlns="http://www.w3.org/2000/svg" xmlns:xlink="http://www.w3.org/1999/xlink" viewBox="0 0 192 192" xml:space="preserve" stroke="#ff8f33">
<g id="SVGRepo_bgCarrier" stroke-width="0"/>
<g id="SVGRepo_tracerCarrier" stroke-linecap="round" stroke-linejoin="round"/>
<g id="SVGRepo_iconCarrier"> <path d="M11.01,6.317v28.597h169.98V6.317c0-3.488-2.829-6.317-6.319-6.317H17.329C13.839,0,11.01,2.829,11.01,6.317z M141.567,8.5 c3.866,0,7,3.134,7,7s-3.134,7-7,7s-7-3.134-7-7S137.701,8.5,141.567,8.5z M50.433,8.5c3.866,0,7,3.134,7,7s-3.134,7-7,7 s-7-3.134-7-7S46.566,8.5,50.433,8.5z M3.426,56.231l7.583,50.194v1.264v40.079v37.914c0,3.488,2.829,6.317,6.319,6.317h157.343 c3.49,0,6.319-2.829,6.319-6.317v-37.914v-40.079v-1.264l7.583-50.194c0-3.488-2.83-6.317-6.319-6.317H9.746 C6.256,49.914,3.426,52.743,3.426,56.231z M111.974,83.568l27.661-2.9v79.331H129V91.571l-17.026,0.161V83.568z M46.017,139.696 l0.107-0.322h10.098c0,3.796,1.37,6.991,4.109,9.588c2.739,2.596,6.275,3.894,10.608,3.894c4.297,0,7.681-1.334,10.151-4.001 c2.471-2.668,3.706-6.15,3.706-10.447c0-4.905-1.137-8.575-3.411-11.011c-2.274-2.435-5.846-3.652-10.715-3.652h-8.701v-8.218h8.701 c4.727,0,8.065-1.173,10.017-3.518c1.951-2.346,2.927-5.631,2.927-9.856c0-3.938-1.066-7.116-3.196-9.534 c-2.131-2.416-5.291-3.625-9.48-3.625c-4.082,0-7.457,1.262-10.124,3.787c-2.668,2.523-4.002,5.685-4.002,9.48H46.715l-0.161-0.322 c-0.18-5.872,2.041-10.885,6.66-15.039c4.619-4.153,10.527-6.23,17.725-6.23c7.269,0,12.962,1.835,17.08,5.505 c4.117,3.671,6.177,9.069,6.177,16.194c0,3.652-0.958,6.982-2.873,9.99c-1.916,3.008-4.592,5.354-8.03,7.036 c3.938,1.576,6.937,3.966,8.997,7.17c2.059,3.205,3.088,7.082,3.088,11.629c0,7.162-2.265,12.774-6.795,16.838 c-4.53,4.064-10.412,6.097-17.644,6.097c-6.66,0-12.524-1.96-17.59-5.882C48.281,151.325,45.837,146.142,46.017,139.696z"/> </g>
</svg>